<svg width="54" height="37" xmlns="http://www.w3.org/2000/svg"><path d="M17.169 13.033a267.07 267.07 0 01-3.763-3.982 140.354 140.354 0 00-4.091-4.236 83.79 83.79 0 00-3.616-3.403C4.627.47 3.872 0 3.434 0c-.536 0-1.12.23-1.754.688-.633.458-.95 1.001-.95 1.629 0 .628.305 1.496.914 2.607.609 1.11 1.424 2.39 2.447 3.837a82.15 82.15 0 003.617 4.707 230.294 230.294 0 004.42 5.213c-1.17 1.4-2.46 2.884-3.872 4.453A177.735 177.735 0 004.31 27.66c-1.217 1.449-2.24 2.764-3.068 3.947C.414 32.788 0 33.669 0 34.249c0 .675.329 1.303.986 1.882.658.58 1.328.869 2.01.869.584 0 1.23-.241 1.935-.724.707-.483 1.596-1.243 2.667-2.28a136.088 136.088 0 003.909-3.983c1.534-1.617 4.395-4.594 5.589-5.829 1.193-1.235 1.193-9.992.073-11.15zM39.408 37c1.198 0 2.588-.084 4.17-.251a22.298 22.298 0 004.492-.934c1.413-.455 2.611-1.066 3.594-1.832.982-.767 1.473-1.749 1.473-2.946 0-.958-.311-1.64-.934-2.048-.623-.407-1.27-.61-1.94-.61-.528 0-1.103.083-1.726.251-.623.168-1.342.36-2.156.575a28.09 28.09 0 01-2.84.575c-1.078.167-2.288.251-3.63.251-3.738 0-6.6-.742-8.59-2.227-1.988-1.485-3.198-3.688-3.63-6.61 2.157.862 4.157 1.425 6.002 1.689 1.845.263 3.607.395 5.284.395 2.252 0 4.3-.192 6.146-.575 1.845-.383 3.426-.982 4.744-1.796a8.422 8.422 0 003.055-3.233C53.64 16.333 54 14.704 54 12.788c0-2.155-.443-4.035-1.33-5.64a12.007 12.007 0 00-3.522-3.987c-1.462-1.054-3.139-1.844-5.032-2.37A21.745 21.745 0 0038.258 0c-2.588 0-4.996.407-7.224 1.221-2.229.815-4.157 2.012-5.787 3.593-1.629 1.58-2.91 3.52-3.845 5.819S20 15.566 20 18.536c0 3.065.48 5.747 1.438 8.047.958 2.299 2.3 4.226 4.025 5.783 1.725 1.557 3.774 2.718 6.146 3.484 2.372.767 4.972 1.15 7.799 1.15zm-1.006-19.326c-1.917 0-3.738-.156-5.463-.467-1.725-.312-3.499-.874-5.32-1.689.24-1.676.695-3.077 1.366-4.202.671-1.126 1.498-2.036 2.48-2.73a9.949 9.949 0 013.27-1.51 14.802 14.802 0 013.739-.466c2.97 0 5.091.622 6.361 1.868 1.27 1.245 1.905 2.706 1.905 4.382 0 1.82-.683 3.078-2.049 3.772-1.365.695-3.462 1.042-6.29 1.042z"/></svg>