<?xml version="1.0" encoding="utf-8"?>
<svg width="507" height="238" viewBox="0 0 507 238" xmlns="http://www.w3.org/2000/svg">
<title>xezoom</title>
  <g id="xezoom" stroke="none" stroke-width="1" transform="translate(-3.000000, -137.000000)">
    <path d="M427.320351,137 C454.277967,137 474.797073,141.314842 488.878286,149.944656 C502.959499,158.574471 510,171.518998 510,188.778626 C510,205.281253 503.900743,219.474813 491.702045,231.359733 C479.503347,243.244652 462.937463,252.063584 442.003895,257.816794 L438.926426,258.736727 C423.682489,263.252115 410.589636,266.50333 399.647517,268.490458 L397.356062,268.898813 C386.123916,270.863389 372.618458,272.695448 356.839338,274.395038 C357.14054,281.056649 358.044134,288.550849 359.550146,296.877863 C361.056158,305.204876 363.315142,312.320581 366.327167,318.225191 C369.941595,325.038202 375.06196,330.45068 381.688413,334.462786 C388.314866,338.474893 396.748407,340.480916 406.989289,340.480916 C424.760232,340.480916 439.857776,337.036612 452.282376,330.147901 C464.706975,323.259189 476.566643,312.320686 487.861733,297.332061 L504.352483,311.185115 C490.798374,330.564346 473.441845,346.044789 452.282376,357.626908 C431.122906,369.209027 408.871912,375 385.528724,375 C367.45658,375 351.60604,372.539783 337.976631,367.619275 C324.347222,362.698767 313.08995,355.848008 304.204479,347.066794 C295.469609,338.28558 288.918555,328.066216 284.55112,316.408397 C280.183685,304.750578 278,291.88175 278,277.801527 C278,259.936297 281.313177,242.601229 287.93963,225.795802 C294.566083,208.990374 304.430314,193.850576 317.532619,180.375954 C329.881918,167.506933 345.544209,157.060473 364.519961,149.03626 C383.495713,141.012046 404.428967,137 427.320351,137 Z M251.461165,137 C261.043737,137 269.029094,140.146322 275.417476,146.43906 C281.805857,152.731797 285,160.881908 285,170.889635 C285,184.08164 280.779168,194.582015 272.337379,202.391075 C263.895589,210.200135 253.590676,214.104607 241.42233,214.104607 C234.121323,214.104607 226.934501,213.194827 219.86165,211.37524 C212.7888,209.555653 206.666693,207.736094 201.495146,205.916507 C199.061477,207.584461 195.487079,211.22358 190.771845,216.833973 C186.056611,222.444366 180.733039,229.267714 174.800971,237.304223 L175.656715,240.911577 C180.643989,261.826512 184.710674,276.940202 187.856877,286.253046 L188.033981,286.773992 C191.380276,296.554272 194.574418,306.448127 197.616505,316.455854 C200.202278,324.492363 204.004829,330.785006 209.024272,335.333973 C214.043714,339.88294 221.95302,342.15739 232.752427,342.15739 C236.70714,342.15739 241.650456,341.39924 247.582524,339.882917 C253.514593,338.366595 258.381858,336.850295 262.184466,335.333973 L257.165049,355.804223 C242.106721,362.172777 228.949894,366.79749 217.694175,369.678503 C206.438455,372.559515 196.39972,374 187.57767,374 C181.189288,374 174.877054,373.39348 168.640777,372.180422 C162.750959,371.034756 157.336075,369.009981 152.395979,366.106039 L151.529126,365.584453 C145.901266,362.248544 141.148078,358.07872 137.269417,353.074856 C133.390757,348.070992 130.082538,341.096014 127.34466,332.149712 C125.641092,326.913346 124.070045,321.01662 122.631479,314.459379 L122.325243,313.044146 C120.8042,305.917431 119.283179,299.624787 117.762136,294.166027 L114.576716,298.900934 C112.196681,302.461674 110.299049,305.361167 108.883797,307.599449 L107.065142,310.500954 C105.269228,313.343828 102.91437,316.976081 100.000525,321.397776 L98.1034024,324.276253 C86.6787477,341.507164 76.728515,353.873857 68.2524272,361.376679 C59.4303766,369.18574 48.8592849,373.090211 36.538835,373.090211 C27.2604714,373.090211 19.3511654,369.981797 12.8106796,363.764875 C6.27019383,357.547954 3,349.435751 3,339.428023 C3,325.932754 7.22083158,315.280749 15.6626214,307.471689 C24.1044111,299.662629 34.4093243,295.758157 46.5776699,295.758157 C53.8786773,295.758157 60.8753711,296.63003 67.5679612,298.3738 C74.2605513,300.117571 80.5727859,302.050853 86.5048544,304.173704 L87.0129674,303.757103 C89.2980179,301.836177 92.6650263,298.411733 97.1140777,293.483685 C101.905364,288.176557 107.114859,281.580654 112.742718,273.695777 L110.903209,266.310823 C106.810664,250.023827 103.384005,237.387778 100.623155,228.402392 L100.42233,227.75144 C97.2281394,217.440447 93.9579455,207.205425 90.6116505,197.046065 C87.8737727,188.857925 83.9191197,182.527374 78.7475728,178.054223 C73.5760259,173.581072 65.8188219,171.34453 55.4757282,171.34453 C50.9125985,171.34453 45.8171802,172.140587 40.1893204,173.732726 C34.5614605,175.324864 29.8462973,176.803256 26.0436893,178.167946 L31.0631068,157.697697 C44.7524956,151.632407 57.7191944,147.083508 69.9635922,144.050864 C82.20799,141.018219 92.4368521,139.501919 100.650485,139.501919 C108.103597,139.501919 114.491883,140.032624 119.815534,141.09405 C125.139185,142.155476 130.766961,144.429925 136.699029,147.917466 C142.174785,151.253376 146.927973,155.461107 150.958738,160.540787 C154.840215,165.432331 158.051677,172.046228 160.593214,180.382666 L160.883495,181.352207 C162.708747,187.417497 164.381869,193.71014 165.902913,200.230326 L168.487484,211.389454 C168.950924,213.408043 169.38228,215.298696 169.781553,217.06142 L176.800818,206.431751 L179.706311,202.049904 C183.128658,196.894408 186.056622,192.345509 188.490291,188.403071 L189.889894,186.2263 C201.039981,169.011568 211.068499,156.583244 219.975728,148.940979 C229.254092,140.980286 239.749132,137 251.461165,137 Z M409.257143,155 C397.523751,155 386.438147,164.537527 376,183.612867 C365.561853,202.688207 358.895253,226.81701 356,256 C364.990521,254.936037 373.904718,253.568105 382.742857,251.896163 C391.580997,250.22422 398.59045,248.248318 403.771429,245.968397 C415.200057,240.952571 423.428546,234.492891 428.457143,226.589165 C433.485739,218.685438 436,208.197959 436,195.126411 C436,182.206858 433.638119,172.28935 428.914286,165.373589 C424.190453,158.457828 417.638137,155 409.257143,155 Z"></path>
  </g>
</svg>
