<svg id="Layer_1" data-name="Layer 1" xmlns="http://www.w3.org/2000/svg" viewBox="0 0 186.06 34.88"><defs><style>.cls-1{fill:none;}.cls-2{fill:#fff;}</style></defs><title>logo</title><path class="cls-1" d="M5.6,21.2a.6.6,0,0,1-.4.1,15.06,15.06,0,0,1-3,.1,1.7,1.7,0,0,1-.7-.1c-.3-.1-.3-.1-.5.2a7.83,7.83,0,0,0-.1,7.7A9.79,9.79,0,0,0,14.7,33a8.23,8.23,0,0,0,2.1-12.2,8.88,8.88,0,0,0-3.4-2.7c-.2-.1-.2-.1,0-.3a5.72,5.72,0,0,0,.7-.8c.3-.4.3-.6,0-.9,0-.1-.1-.2-.2-.1a.19.19,0,0,0,0,.3.37.37,0,0,1,.1.3.35.35,0,0,1-.2-.1c-.1-.1-.2-.1-.4,0a7.63,7.63,0,0,1-1.1.8,17,17,0,0,1-5.8,2.2H6.2a25.06,25.06,0,0,0,4.6-1.6.9.9,0,0,0-.5.1,16.17,16.17,0,0,1-7.2,1.3,6.75,6.75,0,0,1-1.4-.2c-.1,0-.2,0-.2-.2V17.7c0-.1.1-.2.2-.1.3.1.7.2,1,.3a11.53,11.53,0,0,0,4.9-.3,15.58,15.58,0,0,0,4.7-2.2.19.19,0,0,0,0-.3,12,12,0,0,1-1.1-1.2c-.3-.4-.3-.4-.7-.1a10.7,10.7,0,0,1-3.1,1.3H7.1a10.2,10.2,0,0,0,2.1-.9c-.1,0-.1,0-.2.1a20.94,20.94,0,0,1-2.3.8,11.31,11.31,0,0,1-4.1.1.9.9,0,0,1-.5-.1c-.1,0-.2,0-.2.2v.6a1.27,1.27,0,0,1-.1.6v-.7a1.49,1.49,0,0,0-.2-.9V14c0-.1,0-.1.1-.2s.1-.1.1-.3V11.3c0-.1,0-.2-.1-.2s-.1-.2-.1-.4v-.5c0-.2,0-.3.2-.4a.35.35,0,0,0,.1-.2,6.8,6.8,0,0,0-.2-2V6.9a.75.75,0,0,1,.1-.5.75.75,0,0,0,.1-.5v.2c0,.4,0,.4.4.4a4.29,4.29,0,0,0,2.5-.4c.1-.1.2-.2,0-.3-.3-.5-.7-1-1-1.5,0-.1-.1-.2-.2-.1s-.4.1-.6.1H2.9c0-.2-.1-.1-.1-.1a2.77,2.77,0,0,1-.9.1c-.2-.1-.3-.1-.2-.3V3.1c0-.2.1-.2.2-.2a2.2,2.2,0,0,0,.8-.1c.2,0,.2-.1.1-.3A2.19,2.19,0,0,1,2.5,2c0-.1-.1-.2-.1-.3l.2.2c.2.2.4.5.6.7a.19.19,0,0,0,.3,0,.14.14,0,0,0,0-.2.1.1,0,0,0-.1-.1A20.5,20.5,0,0,1,1.9.4L1.6.1a.19.19,0,0,0-.3,0V.5c0,3.7-.1,7.3-.1,11,0,1.9-.1,3.7,0,5.6V18a17.63,17.63,0,0,0,0,2.3c0,.2.1.3.2.3a4.51,4.51,0,0,0,1.1.3,26.35,26.35,0,0,0,2.8.2A.37.37,0,0,1,5.6,21.2ZM3.5,11.7A10.24,10.24,0,0,0,7,10.6c-.1-.1-.2,0-.3,0-.4.1-.9.3-1.3.4a6.52,6.52,0,0,1-2.4.2c-.2,0-.5-.1-.7-.1s-.2,0-.2.2v2.3c0,.2.1.2.2.3a6.75,6.75,0,0,0,1.4.2,10.73,10.73,0,0,0,3.5-.6,12.81,12.81,0,0,0,2.4-1.1c.1-.1.2-.1.1-.2-.5-.5-.9-1.1-1.4-1.7a.19.19,0,0,0-.3,0c-.2.1-.5.3-.7.4a6.65,6.65,0,0,1-3.4.9A.6.6,0,0,0,3.5,11.7ZM4,7.9c.2-.1.3-.1.5-.2a.1.1,0,0,0,.1-.1c0-.1-.1,0-.1,0H4.1a3.13,3.13,0,0,1-1.9.2C2,7.8,2,7.8,2,8a10.87,10.87,0,0,0,.1,1.8c0,.1,0,.2.2.2a2.77,2.77,0,0,0,.9.1,8.53,8.53,0,0,0,3.5-.8A1.44,1.44,0,0,0,7,9.1c.1-.1.1-.1,0-.2-.3-.5-.7-1-1-1.5a.37.37,0,0,0-.3-.1l-.6.3A2,2,0,0,1,4,7.9Zm6.5,3.8h0c-.5-.7-1-1.3-1.4-1.9,0,0-.1-.1-.1,0l-.1.1c0,.1.1.1.1.2a14.7,14.7,0,0,0,1,1.3c.1.1.1.2.2.3A.19.19,0,0,0,10.5,11.7ZM5.7,5.4h0c-.4-.5-.7-1-1.1-1.5,0-.1-.1,0-.2,0a.1.1,0,0,0-.1.1c0,.1,0,.1.1.2a14.7,14.7,0,0,1,1,1.3l.1.1C5.6,5.5,5.6,5.4,5.7,5.4ZM8,8.4a.1.1,0,0,0-.1-.1c-.4-.5-.7-1-1.1-1.5,0-.1-.1-.2-.2-.1a.19.19,0,0,0,0,.3,10.59,10.59,0,0,1,1,1.2l.3.3s.1.1.1,0ZM11.5,13c-.1,0-.2.1-.1.2.4.5.8,1.1,1.2,1.6.1.1.1.1.2.1s0-.1,0-.2c-.4-.5-.8-1.1-1.2-1.6C11.6,13,11.6,13,11.5,13Z" transform="translate(0.06 -0.03)"/><path class="cls-1" d="M4.3,21.6a1.27,1.27,0,0,1,.6-.1,14.14,14.14,0,0,0,4.5-1.1c.5-.2,1-.5,1.6-.8a.37.37,0,0,1,.3-.1,7,7,0,0,1,5.1,5.3,5.33,5.33,0,0,1-.1,2.8c0,.1-.1.2-.2.3a6.44,6.44,0,0,1-3.8,2.2,6.27,6.27,0,0,1-3.8-.6,7.34,7.34,0,0,1-3.4-2.7,4.17,4.17,0,0,1-.9-2.4,2.89,2.89,0,0,1,.3-1.8A1,1,0,0,0,4.3,21.6Z" transform="translate(0.06 -0.03)"/><path class="cls-1" d="M10.9,32.2a6.05,6.05,0,0,1-1.9,0,7.53,7.53,0,0,1-4.9-2.3,6.6,6.6,0,0,1-1.9-4.6,3.29,3.29,0,0,1,.4-1.7v.6a7.42,7.42,0,0,0,1.3,5,6.84,6.84,0,0,0,3.7,2.5,16.68,16.68,0,0,0,3.1.5Z" transform="translate(0.06 -0.03)"/><path class="cls-2" d="M13.4,18.2c-.2-.1-.2-.1,0-.3a5,5,0,0,0,.7-.8c.3-.4.3-.5,0-.9,0-.1-.1-.2-.2-.1a.19.19,0,0,0,0,.3c0,.1.1.2.1.3s-.2,0-.2-.1c-.2-.1-.3-.1-.4,0a4.44,4.44,0,0,1-1.1.8,17,17,0,0,1-5.8,2.2c-.1,0-.2.1-.3,0A25.06,25.06,0,0,0,10.8,18a.75.75,0,0,0-.5.1,16.17,16.17,0,0,1-7.2,1.3c-.5-.1-.9-.1-1.4-.2a.22.22,0,0,1-.2-.2V17.8c0-.1.1-.2.2-.1a3.81,3.81,0,0,0,1,.3,11.58,11.58,0,0,0,4.9-.5,11.94,11.94,0,0,0,4.7-2.2.19.19,0,0,0,0-.3c-.4-.4-.7-.8-1.1-1.2s-.3-.4-.7-.1A12,12,0,0,1,7.4,15c-.1,0-.2.1-.3,0a6.1,6.1,0,0,0,2-.81H9a15.55,15.55,0,0,1-2.3.8,13.5,13.5,0,0,1-4,.1.9.9,0,0,0-.5-.1c-.2,0-.3,0-.3.3v.6a1.27,1.27,0,0,1-.1.6v-.7a1.49,1.49,0,0,0-.2-.9V14c0-.1,0-.2.1-.2a.37.37,0,0,0,.1-.3V11.3c0-.1,0-.2-.1-.2a.6.6,0,0,1-.1-.4v-.5c0-.2,0-.3.1-.3s.1-.1.1-.2c-.1-.7.1-1.4-.2-2V7c0-.2,0-.4.2-.5A.75.75,0,0,0,1.9,6v.2c0,.4,0,.4.4.4a5.34,5.34,0,0,0,2.5-.5c.1-.1.2-.2,0-.3-.3-.5-.7-1-1-1.5a.37.37,0,0,0-.3-.1c-.2,0-.3.1-.5.1,0,.1-.1.1-.1,0s0-.1-.1-.1a2.77,2.77,0,0,1-.9.1c-.1-.1-.2-.1-.2-.3V3.1a.22.22,0,0,1,.2-.2,1.48,1.48,0,0,0,.7-.1c.2-.1.2-.2.1-.3l-.3-.6c0-.1-.1-.1-.1-.3.1.1.2.1.2.2.2.3.4.5.6.8.1,0,.2.1.3,0s0-.1,0-.2a.1.1,0,0,1-.1-.1A13.3,13.3,0,0,0,1.9.4L1.6.1C1.5,0,1.4,0,1.2.2V.6c0,3.7-.1,7.3-.1,11v8.8c0,.1,0,.2.2.3s.7.2,1.1.3a26.36,26.36,0,0,0,2.8.2c.1,0,.3-.1.4,0-.1,0-.2.1-.4.2a15.07,15.07,0,0,1-3,.1,1.7,1.7,0,0,1-.7-.1c-.3-.1-.4-.1-.5.2a7.82,7.82,0,0,0-.1,7.7,9.79,9.79,0,0,0,13.8,3.8,8.16,8.16,0,0,0,2.1-12.2A9.93,9.93,0,0,0,13.4,18.2ZM9,32.2a7.53,7.53,0,0,1-4.9-2.3,6.19,6.19,0,0,1-1.9-4.6,5.26,5.26,0,0,1,.4-1.7v.6a7.42,7.42,0,0,0,1.3,5,6.84,6.84,0,0,0,3.7,2.5,15.44,15.44,0,0,0,3.1.5.14.14,0,0,1,.2,0A6,6,0,0,1,9,32.2Zm7.3-4.4c-.1.1-.1.2-.2.3a7,7,0,0,1-3.8,2.2,5.53,5.53,0,0,1-3.8-.6,9.43,9.43,0,0,1-3.4-2.9,5,5,0,0,1-.9-2.4,5.66,5.66,0,0,1,.3-1.8,1,1,0,0,0-.2-1,.47.47,0,0,1,.6.1,13.51,13.51,0,0,0,4.5-1.1,8,8,0,0,0,1.6-.8.37.37,0,0,1,.3-.1A7.06,7.06,0,0,1,16.4,25,5.33,5.33,0,0,1,16.3,27.8Z" transform="translate(0.06 -0.03)"/><path class="cls-2" d="M9.06,14.19s.07,0,.14-.09Z" transform="translate(0.06 -0.03)"/><path class="cls-2" d="M7.3,10.8a6,6,0,0,1-3.4.9H3.5A9.12,9.12,0,0,0,7,10.5c-.1-.1-.2,0-.3,0a6.47,6.47,0,0,1-1.3.4,9.74,9.74,0,0,1-2.4.2c-.2,0-.5-.1-.7-.1a.22.22,0,0,0-.2.2v2.3c0,.2,0,.3.2.3a5.9,5.9,0,0,0,1.4.2,10.3,10.3,0,0,0,3.5-.6,12.81,12.81,0,0,0,2.4-1.1c.1,0,.2-.1.1-.2L8.3,10.4a.19.19,0,0,0-.3,0C7.8,10.5,7.5,10.7,7.3,10.8Z" transform="translate(0.06 -0.03)"/><path class="cls-2" d="M10,11.4c.1.1.1.2.2.3s.1.1.3,0c-.5-.7-.9-1.3-1.4-1.9H9c-.1,0-.1,0-.1.1a.35.35,0,0,0,.1.2C9.3,10.5,9.7,11,10,11.4Z" transform="translate(0.06 -0.03)"/><path class="cls-2" d="M12.6,14.8c0,.1.1.2.2.1s0-.1,0-.2c-.4-.6-.8-1.1-1.2-1.6,0-.1,0-.1-.1-.1s-.2.1-.1.2C11.8,13.8,12.2,14.3,12.6,14.8Z" transform="translate(0.06 -0.03)"/><path class="cls-2" d="M5.1,7.6l-.51.15a.13.13,0,0,0,0,0H4.1a4.08,4.08,0,0,1-1.9.1C2,7.8,2,7.8,2,8V9.8a.22.22,0,0,0,.2.2c.3,0,.6.1.9.1a8.52,8.52,0,0,0,3.5-.8A.76.76,0,0,0,7,9.1c.1,0,.1-.1.1-.2-.4-.5-.7-1-1.1-1.5a.37.37,0,0,0-.3-.1Z" transform="translate(0.06 -0.03)"/><path class="cls-2" d="M7.5,8.2l.3.3h.1a.1.1,0,0,0,0-.2c-.4-.5-.7-1-1.1-1.5,0-.1-.1-.2-.2-.1a.19.19,0,0,0,0,.3Z" transform="translate(0.06 -0.03)"/><path class="cls-2" d="M5.5,5.5c0,.1,0,.1.1.1s.1-.1.1-.2A15.26,15.26,0,0,1,4.6,3.8H4.4c-.1.1-.1.1-.1.2a.35.35,0,0,0,.1.2C4.7,4.6,5.1,5,5.5,5.5Z" transform="translate(0.06 -0.03)"/><path class="cls-2" d="M40.7,28.7a5.85,5.85,0,0,0-1.3-.2c-.6,0-1.2-.2-1.3-.7-.1-.3.5-.7.5-.9a3,3,0,0,1,.2-1.4c0-.2-.2-.3-.4-.2s-.3.2-.4.3a2.65,2.65,0,0,0-.5.6,4.85,4.85,0,0,0-.8,2.1c-.1.2-.1.2-.3.2a4.71,4.71,0,0,1-1.5-.6c-2.1-1.2-4-2.3-6-3.5-.3-.1-.4-.1-.6.1,0,.1-.1.1-.1.2a9.14,9.14,0,0,0-.9,1.7.19.19,0,0,0,0,.3c0,.1.1.1.2.2,1,.8,2,1.5,3,2.2a25.33,25.33,0,0,0,5.1,2.8,7.89,7.89,0,0,0,3.4.6,1.84,1.84,0,0,0,1.9-1.3c.1-.5.3-1,.4-1.5S41.2,28.8,40.7,28.7Z" transform="translate(0.06 -0.03)"/><path class="cls-2" d="M35,13.3c.1-.3,0-.6-.5-.8l-1.8-.6a1.83,1.83,0,0,0-2.2.9.76.76,0,0,0-.2.4c-.9,1.6-1.6,3.2-2.4,4.9-.7,1.5-1.4,3-2.2,4.5-.2.3-.2.3-.5.1a5.94,5.94,0,0,1-1.8-1.3,1.8,1.8,0,0,1-.7-1.5c0-1.1.1-2.2.1-3.4,0-.8.1-1.5.1-2.3,0-.4-.2-.3-.5-.4a5.15,5.15,0,0,0-5.8,2.1c.7.5,3.8,1.7,4.6,8.1.4,3.5-.7,4.9-1.1,8a.9.9,0,0,0,.1.5,2.75,2.75,0,0,0,1,1.9,2.11,2.11,0,0,0,1.3.5,1.55,1.55,0,0,0,1.3-.7c.6-.9.3-2.9.6-3.7.8-2.4,1.2-2.3,2.4-4.5a117.29,117.29,0,0,1,7.8-12A1.61,1.61,0,0,0,35,13.3Z" transform="translate(0.06 -0.03)"/><path class="cls-2" d="M57.3,16a6.53,6.53,0,0,0-4.6,1.5,5.53,5.53,0,0,0-1.6,4.4,5.53,5.53,0,0,0,1.6,4.4,7.64,7.64,0,0,0,4.6,1.5,6.53,6.53,0,0,0,4.6-1.5,5.53,5.53,0,0,0,1.6-4.4,5.53,5.53,0,0,0-1.6-4.4A6.53,6.53,0,0,0,57.3,16Zm2,8.6a2.48,2.48,0,0,1-2,.8,2.21,2.21,0,0,1-2-.8,4.69,4.69,0,0,1-.6-2.7,4.69,4.69,0,0,1,.6-2.7,2.48,2.48,0,0,1,2-.8,2.21,2.21,0,0,1,2,.8,4.91,4.91,0,0,1,.6,2.7A4.91,4.91,0,0,1,59.3,24.6Z" transform="translate(0.06 -0.03)"/><path class="cls-2" d="M132.3,16.4c-.2-.1-.3-.2-.5-.2H121.7a.76.76,0,0,0-.5.2c-.1.2-.2.3-.2.5v1.2c0,.2.1.4,0,.6.2.1.3.2.5.2h3.3v8.2a.76.76,0,0,0,.2.4c.2.1.3.2.5.2h2.3a.76.76,0,0,0,.5-.2c.1-.2.2-.3.2-.5V18.8h3.3a.76.76,0,0,0,.5-.2c.1-.2.2-.3.2-.5V16.9C132.5,16.7,132.5,16.5,132.3,16.4Z" transform="translate(0.06 -0.03)"/><path class="cls-2" d="M158.1,16.3h-2.9a1.85,1.85,0,0,0-.7.2,1.2,1.2,0,0,0-.5.5l-3.7,6.7V16.9a.68.68,0,0,0-.7-.7h-2.2a.76.76,0,0,0-.5.2c-.1.2-.2.3-.2.5v10c0,.2.1.3.2.6.2.1.3.2.5.2h2.9a1.85,1.85,0,0,0,.7-.2,1.2,1.2,0,0,0,.5-.5l3.7-6.6v6.7a.4.4,0,0,0,.2.4c.2.1.3.2.5.2h2.2a.76.76,0,0,0,.5-.2c.1-.2.2-.3.2-.5V17a.76.76,0,0,0-.2-.5C158.4,16.4,158.3,16.3,158.1,16.3Z" transform="translate(0.06 -0.03)"/><path class="cls-2" d="M166.5,16a6.53,6.53,0,0,0-4.6,1.5,5.53,5.53,0,0,0-1.6,4.4,5.53,5.53,0,0,0,1.6,4.4,7.64,7.64,0,0,0,4.6,1.5,6.53,6.53,0,0,0,4.6-1.5,5.53,5.53,0,0,0,1.6-4.4,5.53,5.53,0,0,0-1.6-4.4A6.53,6.53,0,0,0,166.5,16Zm2,8.6a2.48,2.48,0,0,1-2,.8,2.21,2.21,0,0,1-2-.8,4.69,4.69,0,0,1-.6-2.7,4.69,4.69,0,0,1,.6-2.7,2.63,2.63,0,0,1,2-.8,2.21,2.21,0,0,1,2,.8,4.91,4.91,0,0,1,.6,2.7A4.91,4.91,0,0,1,168.5,24.6Z" transform="translate(0.06 -0.03)"/><path class="cls-2" d="M185.8,26.5l-1.7-2.8a4.36,4.36,0,0,0-2.2-1.9,2.23,2.23,0,0,0,1.3-.6,2.73,2.73,0,0,0,.9-1.2l1.3-2.8c.1-.3.2-.4.2-.6s-.2-.4-.5-.4h-1.9a1.61,1.61,0,0,0-.9.3,1.34,1.34,0,0,0-.6.7l-1,2.1a2.39,2.39,0,0,1-2.4,1.4V16.9a.76.76,0,0,0-.2-.5c-.2-.1-.3-.2-.5-.2h-2.3a.76.76,0,0,0-.4.2c-.1.2-.2.3-.2.5v10c0,.2,0,.3.2.4s.3.2.5.2h2.3a.76.76,0,0,0,.4-.2c.1-.2.2-.3.2-.5V23a2.81,2.81,0,0,1,2.4,1.4l1.3,2.1a1.72,1.72,0,0,0,1.6,1h1.9a.46.46,0,0,0,.5-.3V27A1.69,1.69,0,0,0,185.8,26.5Z" transform="translate(0.06 -0.03)"/><path class="cls-2" d="M143.3,23.7a4.36,4.36,0,0,0-2.2-1.9,2.23,2.23,0,0,0,1.3-.6,2.73,2.73,0,0,0,.9-1.2l1.3-2.8c.1-.3.2-.4.2-.6s-.2-.4-.5-.4h-1.9a1.61,1.61,0,0,0-.9.3,1.34,1.34,0,0,0-.6.7l-1,2.1a2.39,2.39,0,0,1-2.4,1.4V16.9a.76.76,0,0,0-.2-.5c-.2-.1-.3-.2-.5-.2h-2.3a.4.4,0,0,0-.4.2c-.1.2-.2.3-.2.5v10a.52.52,0,0,0,.2.4c.2.1.3.2.5.2h2.3a.76.76,0,0,0,.4-.2c.1-.2.2-.3.2-.5V23a2.81,2.81,0,0,1,2.4,1.4l1.3,2.1a1.71,1.71,0,0,0,1.6,1h1.9a.46.46,0,0,0,.5-.3V27a1.69,1.69,0,0,0-.2-.5Z" transform="translate(0.06 -0.03)"/><path class="cls-2" d="M86.6,23.7a4.36,4.36,0,0,0-2.2-1.9,2.23,2.23,0,0,0,1.3-.6,2.73,2.73,0,0,0,.9-1.2l1.3-2.8c.1-.3.2-.4.2-.6s-.2-.4-.5-.4H85.7a1.61,1.61,0,0,0-.9.3,1.34,1.34,0,0,0-.6.7l-1,2.1a2.39,2.39,0,0,1-2.4,1.4V16.9c0-.2,0-.4-.2-.5s-.3-.2-.5-.2H77.8a.76.76,0,0,0-.4.2c-.1.2-.2.3-.2.5v10a.52.52,0,0,0,.2.4c.2.1.3.2.5.2h2.3a.76.76,0,0,0,.4-.2c.1-.2.2-.3.2-.5V23a2.81,2.81,0,0,1,2.4,1.4l1.3,2.1a1.71,1.71,0,0,0,1.6,1H88a.46.46,0,0,0,.5-.3V27a1.69,1.69,0,0,0-.2-.5Z" transform="translate(0.06 -0.03)"/><path class="cls-2" d="M75.1,16.2H65a.76.76,0,0,0-.5.2c-.1.2-.2.3-.2.5v1.2a1.42,1.42,0,0,0,.2.6c.2.1.3.2.5.2h3.1v8.2a.4.4,0,0,0,.2.4c.2.1.3.2.5.2h2.3a.76.76,0,0,0,.5-.2c.1-.2.2-.3.2-.5V18.8h3.3c.2,0,.4,0,.5-.2s.2-.3.2-.5V16.9a.76.76,0,0,0-.2-.5C75.4,16.3,75.3,16.2,75.1,16.2Z" transform="translate(0.06 -0.03)"/><path class="cls-2" d="M119,16.2h-2.3a.76.76,0,0,0-.5.2c-.1.2-.2.3-.2.5v10c0,.2.1.3.2.5s.3.2.5.2H119a.76.76,0,0,0,.5-.2c.1-.2.2-.3.2-.5v-10a.76.76,0,0,0-.2-.5C119.3,16.3,119.2,16.2,119,16.2Z" transform="translate(0.06 -0.03)"/><path class="cls-2" d="M113.4,20.9A5.51,5.51,0,0,0,110,20h-2.4V16.9a.76.76,0,0,0-.2-.5c-.2-.1-.3-.2-.5-.2h-2.3a.76.76,0,0,0-.4.2c-.1.2-.2.3-.2.5v10a.9.9,0,0,0,.1.5c.2.1.3.2.5.2H110a5.51,5.51,0,0,0,3.4-.9,3.43,3.43,0,0,0,1.2-2.9A3.43,3.43,0,0,0,113.4,20.9Zm-3.7,4.3h-2.2v-3h2.2c.9,0,1.3.5,1.3,1.5S110.6,25.2,109.7,25.2Z" transform="translate(0.06 -0.03)"/><path class="cls-2" d="M97,16a6,6,0,0,0-3.6,1.2v-.3a.76.76,0,0,0-.2-.5c-.2-.1-.3-.2-.5-.2h-2a.76.76,0,0,0-.4.2c-.1.2-.2.3-.2.5V30.4a.6.6,0,0,0,.1.4c.2.1.3.2.5.2H93c.2,0,.3-.1.5-.2s.2-.3.2-.5V27.1a11.73,11.73,0,0,0,3,.5,5.28,5.28,0,0,0,3.9-1.5,5.77,5.77,0,0,0,1.5-4.3,5.73,5.73,0,0,0-1.4-4.3A4.82,4.82,0,0,0,97,16Zm.8,8.4a2.48,2.48,0,0,1-2,.8,6.85,6.85,0,0,1-2.2-.4V19.4a4.79,4.79,0,0,1,2.4-.9,2.2,2.2,0,0,1,1.8.8,4,4,0,0,1,.6,2.5A4.33,4.33,0,0,1,97.8,24.4Z" transform="translate(0.06 -0.03)"/></svg>